<svg width="41" height="39" viewBox="0 0 41 39" fill="none" xmlns="http://www.w3.org/2000/svg">
<path d="M38.9419 38.4924L38.935 38.9924C38.443 38.9831 37.7203 38.9642 37.4009 38.9299C37.0908 38.8987 36.7978 38.4545 36.8626 37.8856L39.435 39M38.9419 38.4924C39.0367 38.4942 39.123 38.4957 39.1962 38.4968C39.2445 38.4975 39.2871 38.4981 39.3225 38.4986C39.3421 38.4989 39.3596 38.4991 39.3746 38.4993L39.4234 38.4998L39.436 38.5L39.4391 38.5L39.4399 38.5L39.4401 38.5L39.435 39M38.9419 38.4924C38.8424 38.4905 38.7334 38.4883 38.6204 38.4855C38.1853 38.4751 37.7174 38.4586 37.4793 38.4353C37.4692 38.4265 37.4506 38.4065 37.4277 38.3656C37.3783 38.2771 37.3381 38.1303 37.3593 37.943C37.3875 37.7033 37.5066 37.1178 37.6445 36.4394C37.6584 36.3715 37.6724 36.3026 37.6865 36.2331C37.836 35.4965 37.9968 34.6923 38.0476 34.2485L38.0476 34.2483C38.0748 34.0091 38.1013 33.0864 38.1268 31.8799C38.1527 30.6543 38.1781 29.0945 38.1998 27.5459C38.2431 24.4621 38.2726 21.3854 38.2617 21.1142C38.2494 20.8117 38.1097 20.534 37.969 20.3104C37.8229 20.0784 37.6304 19.8366 37.4402 19.6025C37.4109 19.5664 37.3816 19.5304 37.3522 19.4943C36.9889 19.0483 36.6224 18.5982 36.3743 18.1091C36.3722 18.0992 36.3663 18.0718 36.3595 18.0197C36.3477 17.9302 36.3372 17.8048 36.3289 17.6426C36.3123 17.3196 36.3058 16.8808 36.3086 16.3533C36.3142 15.3001 36.3567 13.9179 36.4242 12.4526C36.5596 9.51489 36.7939 6.28195 37.0266 4.71787C37.2537 3.19141 37.7197 2.14899 38.187 1.48374C38.6691 0.797363 39.1185 0.555242 39.2886 0.520919L39.2896 0.52071C39.3649 0.505351 39.4229 0.500309 39.466 0.500015L38.9419 38.4924ZM39.435 39L39.1304 38.9958C39.3147 38.9988 39.435 39 39.435 39ZM3.50629 29.8198L3.0063 29.8171L3.0063 29.8174L3.00629 29.8185L3.00626 29.8232L3.00616 29.8416L3.00574 29.9135L3.00402 30.1866C3.00248 30.422 3.00016 30.7582 2.99699 31.1619C2.99066 31.9694 2.98098 33.046 2.96757 34.1236C2.95416 35.2017 2.93706 36.2786 2.91591 37.0873C2.90634 37.4532 2.89602 37.7608 2.88502 37.9878C2.79833 37.9834 2.70204 37.9763 2.59909 37.9675C2.48163 37.9575 2.35015 37.9445 2.2187 37.9315C2.00741 37.9107 1.79621 37.8899 1.64345 37.8812C1.50166 37.8733 1.43618 37.8303 1.40204 37.7947C1.3646 37.7555 1.31261 37.6698 1.29975 37.4879L1.29973 37.4878C1.27203 37.0981 1.39418 36.4679 1.57199 35.6926C1.59925 35.5737 1.62763 35.4521 1.6564 35.3288C1.80513 34.6915 1.96427 34.0096 2.03341 33.4289L3.50629 29.8198ZM3.50629 29.8198L3.0063 29.817L3.00631 29.8154L3.12556 16.2866L3.12776 16.0369L3.32878 15.8886L5.67254 14.1601L5.671 14.0817L5.65345 13.19C5.63886 12.4504 5.61927 11.4605 5.59925 10.4591C5.59816 10.4046 5.59707 10.35 5.59598 10.2954M3.50629 29.8198L5.59598 10.2954M1.84018 18.5471C2.34013 18.5541 2.34013 18.5541 2.34013 18.5543L2.34012 18.5547L2.3401 18.5566L2.33999 18.5642L2.33957 18.5941L2.33792 18.7107L2.33157 19.1538C2.32605 19.5361 2.31803 20.0831 2.30808 20.7424C2.28816 22.061 2.26047 23.8287 2.22937 25.625C2.19828 27.4212 2.16376 29.2467 2.13018 30.6806C2.0971 32.0934 2.06439 33.1692 2.03344 33.4286L1.84018 18.5471ZM1.84018 18.5471L2.34013 18.5541L2.34575 18.1518L1.95892 18.0614C1.95878 18.0614 1.95862 18.0613 1.95845 18.0613C1.9577 18.0611 1.95666 18.0608 1.95534 18.0604C1.95228 18.0595 1.9477 18.0582 1.9417 18.0563C1.92333 18.0505 1.89192 18.0398 1.85042 18.0227C1.76725 17.9883 1.64501 17.9286 1.50622 17.8315C1.23236 17.64 0.883825 17.2963 0.642552 16.688C0.580025 16.529 0.529804 16.1882 0.509928 15.6826C0.490889 15.1982 0.500965 14.625 0.525414 14.0458C0.562538 13.1663 0.631231 12.3013 0.6762 11.735C0.690609 11.5536 0.702582 11.4028 0.7103 11.292C0.75363 10.6804 0.796575 9.9062 0.83865 9.14767C0.854778 8.85691 0.870779 8.56845 0.886625 8.29233C0.895227 8.14243 0.903784 7.99615 0.912293 7.85495C0.866608 9.74401 0.801847 12.5389 0.801847 13.014C0.801847 13.2482 0.849539 13.4776 0.969856 13.6661C1.09364 13.8599 1.3084 14.0216 1.58728 14.0235C1.85998 14.0253 2.07308 13.8733 2.20122 13.6964C2.32924 13.5197 2.39188 13.3002 2.40419 13.0722L2.40422 13.0722L2.40447 13.0664C2.40738 12.9979 2.41509 12.7786 2.42608 12.4573C2.4267 12.8 2.42707 13.0436 2.42707 13.1387C2.42707 13.56 2.65888 14.0494 3.17623 14.0847C3.63708 14.1162 3.90445 13.7672 3.98243 13.4043M1.84018 18.5471L3.58466 6.0899C3.62214 5.75091 3.80953 5.56777 4.0344 5.56777C4.26269 5.56777 4.40238 5.78987 4.41942 6.10549M4.41942 6.10549L4.08467 6.1219C4.09461 6.05814 4.1115 6.03563 4.11143 6.03558C4.11142 6.03557 4.11106 6.03603 4.11028 6.03689C4.1065 6.04107 4.09673 6.04996 4.08022 6.05741C4.06357 6.06493 4.04714 6.06777 4.0344 6.06777C4.00722 6.06777 3.97355 6.06031 3.94204 6.04246C3.91235 6.02564 3.89816 6.00741 3.8947 6.00239C3.89416 6.00161 3.89391 6.00121 3.8939 6.00121C3.89388 6.00122 3.89859 6.00922 3.90425 6.02859C3.91079 6.05097 3.91713 6.08362 3.91982 6.12696C3.91988 6.12781 3.91993 6.12867 3.91998 6.12953C3.92001 6.1301 3.92004 6.13067 3.92008 6.13124C3.93971 6.54326 3.96705 12.6702 3.95369 13.1401C3.95301 13.164 3.9532 13.1877 3.95423 13.2112C3.95423 13.2112 3.95424 13.2113 3.95424 13.2114C3.95716 13.2776 3.96677 13.3422 3.98243 13.4043M4.41942 6.10549L4.08441 6.12357L4.45349 13.1543C4.46712 12.675 4.43986 6.52242 4.41942 6.10549ZM3.98243 13.4043C4.07158 13.7578 4.35694 14.0298 4.72216 14.062C4.95746 14.0828 5.19943 13.9947 5.36872 13.7937C5.52963 13.6026 5.58629 13.3578 5.58379 13.1179L5.58376 13.1156C5.58083 12.9211 5.58749 11.6798 5.59598 10.2954M3.98243 13.4043L5.59598 10.2954M37.4875 38.4413C37.4875 38.4414 37.487 38.4411 37.4861 38.4406L37.4875 38.4413Z" fill="white" stroke="white"/>
<path d="M39.1109 21.094C39.1032 20.7786 38.9942 20.4748 38.8674 20.2188C38.8279 20.139 38.785 20.0607 38.7401 19.9846L39.0326 20.057L39.3421 20.1338L39.5422 19.8854L39.7222 19.6619L39.7489 20.75C39.785 22.2253 39.8331 24.1993 39.8813 26.1942C39.9777 30.1911 40.0736 34.2541 40.0736 34.5812C40.0736 34.8149 40.1218 35.1388 40.1776 35.4726C40.2028 35.6234 40.2296 35.7764 40.2574 35.9347C40.296 36.1546 40.3363 36.3846 40.3765 36.6327L40.3767 36.634C40.4348 36.9875 40.4863 37.3858 40.4977 37.7318C40.5033 37.905 40.4984 38.0529 40.4831 38.169C40.4755 38.2265 40.4661 38.2703 40.4568 38.3019C40.4494 38.327 40.4435 38.3391 40.442 38.3422C40.4126 38.3864 40.3705 38.4217 40.2629 38.4494C40.1314 38.4832 39.9541 38.492 39.6912 38.492C39.6041 38.492 39.5154 38.4935 39.4257 38.495C39.2118 38.4986 38.9921 38.5023 38.7748 38.4861C38.6262 38.475 38.5081 38.4558 38.4228 38.4299C38.3965 38.4219 38.3773 38.4144 38.3638 38.4084C38.3625 38.4005 38.3612 38.3912 38.3599 38.3804C38.3507 38.3017 38.3503 38.1865 38.3631 38.0328C38.3886 37.7266 38.4603 37.338 38.5531 36.9217C38.6387 36.5376 38.7384 36.1467 38.828 35.7952L38.8483 35.7156C38.9394 35.358 39.0248 35.0206 39.0575 34.8098C39.0778 34.6787 39.0894 34.3702 39.0986 33.9865C39.1082 33.5824 39.1158 33.0462 39.1216 32.4229C39.1332 31.176 39.1379 29.5736 39.1384 27.9684C39.1392 24.7653 39.1231 21.5335 39.1109 21.094ZM39.1109 21.094C39.1109 21.0937 39.1109 21.0933 39.1109 21.093L38.6111 21.107L39.1109 21.095C39.1109 21.0947 39.1109 21.0943 39.1109 21.094ZM4.03589 18.5834L4.53589 18.5859C4.03589 18.5834 4.03589 18.5835 4.03589 18.5836L4.03589 18.5841L4.03588 18.5861L4.03584 18.5939L4.03569 18.6248L4.03512 18.7454L4.03304 19.204C4.0313 19.5995 4.02894 20.1657 4.02647 20.8482C4.02152 22.2132 4.01608 24.0438 4.01417 25.906C4.01225 27.7679 4.01385 29.6623 4.02296 31.1545C4.03194 32.6248 4.04796 33.7513 4.07987 34.0367L4.08009 34.0386C4.12433 34.421 4.25399 35.0033 4.3838 35.5862C4.43437 35.8132 4.48496 36.0404 4.53052 36.2559C4.61517 36.6562 4.68527 37.0257 4.72037 37.3221C4.73794 37.4705 4.74523 37.5887 4.74355 37.6764C4.74241 37.7364 4.73721 37.7651 4.73604 37.7723C4.70269 37.8402 4.65107 37.8972 4.48159 37.9443C4.26778 38.0038 3.92793 38.0266 3.37622 38.0053L3.37528 38.0053C3.31923 38.0033 3.26602 38.0014 3.21535 37.9996C2.99127 37.9918 2.81723 37.9857 2.67029 37.9728C2.48683 37.9567 2.40691 37.9337 2.37219 37.9173C2.36807 37.9154 2.36651 37.9154 2.36545 37.9147C2.3641 37.9137 2.36358 37.9116 2.35959 37.9027C2.34165 37.8624 2.31624 37.768 2.30614 37.561C2.29813 37.3969 2.32438 37.171 2.38302 36.8809C2.44077 36.5952 2.52288 36.2794 2.61199 35.9391L2.62665 35.8831C2.79516 35.24 2.98986 34.4969 3.0084 33.8672C3.02563 33.282 3.06571 29.308 3.10144 25.4918C3.11933 23.5812 3.13615 21.7067 3.1485 20.31L3.16325 18.6282L3.16731 18.1595L3.16837 18.0363L3.16864 18.0047L3.16871 17.9967L3.16873 17.9947L3.16873 17.9942C3.16873 17.9941 3.16873 17.994 2.66875 17.9897L3.16873 17.994L3.17252 17.553L2.73812 17.4946C2.73758 17.4945 2.7368 17.4944 2.73578 17.4942C2.73148 17.4935 2.72297 17.492 2.71073 17.4896C2.68619 17.4847 2.64708 17.476 2.59718 17.462C2.49666 17.4338 2.35667 17.3853 2.20519 17.3056C1.90446 17.1474 1.57128 16.8747 1.38871 16.395C1.28386 16.1145 1.2534 15.9111 1.25071 15.7733L5.62246 16.3716C5.61688 16.4151 5.61043 16.4607 5.60298 16.5077C5.54839 16.8517 5.45046 17.2012 5.29932 17.4221C5.07493 17.7475 4.84303 17.9155 4.68255 18.0018C4.60114 18.0455 4.5358 18.0694 4.49612 18.0816C4.47629 18.0877 4.46296 18.0908 4.45738 18.092C4.45729 18.092 4.45719 18.0921 4.4571 18.0921L4.03804 18.1517L4.03589 18.5834Z" fill="white" stroke="white"/>
<path d="M38.0566 3.36272L38.0567 3.36262C38.4973 1.53362 39.1872 0.917868 39.5602 0.723243C39.5602 0.758478 39.5597 0.7971 39.559 0.839508C39.5583 0.877986 39.5573 0.919849 39.5563 0.964139C39.5538 1.07189 39.551 1.19401 39.551 1.31672C39.551 1.65454 39.5851 5.8996 39.6192 10.0549C39.6362 12.1337 39.6532 14.1916 39.666 15.7297L39.6815 17.5849L39.6858 18.1032L39.6861 18.1351L39.1293 18.9865C38.9372 18.8941 38.6952 18.777 38.4499 18.6568C38.177 18.5231 37.9026 18.3868 37.6892 18.2765C37.5984 18.2296 37.5212 18.1888 37.4611 18.1557C37.4543 18.12 37.4469 18.0751 37.4391 18.0194C37.408 17.7968 37.3775 17.4475 37.355 16.9345C37.3102 15.911 37.2988 14.2711 37.3685 11.7616L37.3685 11.7616C37.4847 7.56655 37.5978 5.26556 38.0566 3.36272ZM37.3528 18.0926C37.3525 18.0923 37.3538 18.0932 37.3564 18.095C37.3542 18.0936 37.353 18.0928 37.3528 18.0926ZM1.23727 15.045C1.23746 15.011 1.23767 14.9771 1.2379 14.9438L5.68952 14.9055C5.6901 14.9717 5.69046 15.0419 5.69046 15.1143C5.69046 15.2448 5.68805 15.3704 5.68467 15.4823C5.55597 15.4902 5.40643 15.4989 5.24588 15.5073C4.74787 15.5336 4.1597 15.557 3.75674 15.5496C3.35504 15.5422 2.62334 15.4883 1.9851 15.4217C1.69597 15.3915 1.43398 15.3595 1.23633 15.3293C1.23636 15.2397 1.23672 15.142 1.23727 15.045Z" fill="white" stroke="white"/>
<path d="M3.99837 37.2631L3.99825 37.2634C3.98158 37.2988 3.96171 37.3157 3.93286 37.3299C3.89619 37.3479 3.84539 37.3593 3.78894 37.3629C3.72591 37.3661 3.66991 37.3685 3.61743 37.3684C3.62572 37.3596 3.63456 37.3504 3.64396 37.3408C3.70843 37.2755 3.78168 37.2117 3.86008 37.1445C3.86642 37.1391 3.87312 37.1334 3.88009 37.1274C3.92564 37.0885 3.98312 37.0394 4.03434 36.9903C4.03356 37.0082 4.03262 37.0256 4.03152 37.0426C4.02701 37.1121 4.02013 37.1672 4.01214 37.2087C4.00466 37.2474 3.99829 37.2631 3.99837 37.2631ZM3.44206 37.3505C3.44207 37.3505 3.44235 37.3506 3.44286 37.3509L3.44206 37.3505ZM2.17639 16.1881C2.03589 16.2414 1.88968 16.2849 1.75237 16.3121C1.59259 16.3437 1.47601 16.3471 1.40364 16.3387C1.37705 16.2993 1.34486 16.2331 1.31497 16.142C1.30962 16.1257 1.30454 16.1091 1.29974 16.0926C1.45146 16.098 1.63116 16.1125 1.81974 16.1356C1.94073 16.1503 2.06137 16.1681 2.17639 16.1881ZM1.42031 16.3606C1.42176 16.3619 1.42246 16.3626 1.42245 16.3627C1.42243 16.3627 1.42171 16.3621 1.42031 16.3606ZM2.83682 16.3631C2.83982 16.3647 2.84114 16.3656 2.84105 16.3657C2.84096 16.3657 2.83946 16.3649 2.83682 16.3631ZM39.8837 37.9621C39.9047 37.946 39.9246 37.9291 39.9437 37.9115C39.9392 37.9376 39.934 37.9564 39.9291 37.9697C39.9287 37.9708 39.9283 37.9719 39.9279 37.9729C39.9159 37.9769 39.8924 37.9826 39.8528 37.9854C39.8641 37.977 39.8746 37.9692 39.8837 37.9621ZM39.4748 38.2962C39.4748 38.2963 39.475 38.2958 39.4757 38.2948L39.4748 38.2962ZM38.9331 19.888C38.7917 19.8126 38.6272 19.6716 38.3208 19.371C38.3142 19.3645 38.3076 19.358 38.3011 19.3515C38.3176 19.3578 38.334 19.3639 38.3504 19.3698C38.539 19.438 38.8176 19.5205 39.0875 19.4659C39.3089 19.422 39.4853 19.3124 39.62 19.1971C39.6124 19.2463 39.6032 19.2969 39.5922 19.348C39.5455 19.5666 39.4758 19.7584 39.402 19.8842C39.3784 19.9244 39.3598 19.9493 39.3472 19.9641C39.1414 19.9717 39.0343 19.942 38.9331 19.888ZM39.3281 19.9831C39.328 19.983 39.329 19.9822 39.3311 19.9808C39.3291 19.9826 39.3281 19.9832 39.3281 19.9831Z" fill="white" stroke="white"/>
<path d="M31.7255 31.0077L31.7255 31.0078C26.5419 39.1201 15.6247 38.2176 10.7518 31.5321C8.00782 27.7648 7.43354 23.6852 7.55133 20.5286C7.61019 18.951 7.84189 17.6103 8.05846 16.6657C8.16667 16.1937 8.27089 15.8216 8.34739 15.5692C8.35393 15.5476 8.36027 15.5269 8.36639 15.5071L33.2551 14.5592C33.2629 14.5782 33.271 14.5981 33.2793 14.6189C33.3764 14.8598 33.5105 15.2169 33.6553 15.6735C33.9449 16.5873 34.2761 17.8963 34.4387 19.4693C34.7636 22.6134 34.415 26.8006 31.7255 31.0077Z" fill="white" stroke="white"/>
<path d="M20.598 5.14435L20.5979 5.14435C16.6573 5.17633 13.5353 6.733 11.3762 9.28424C9.20973 11.8442 7.98677 15.4382 7.92842 19.5712L20.598 5.14435ZM20.598 5.14435C28.7148 5.07703 34.2627 12.4106 34.2098 19.6268L34.2098 19.627M20.598 5.14435L34.2098 19.627M34.2098 19.627C34.1814 23.7297 32.9854 27.708 30.7748 30.6479C28.5726 33.5764 25.3633 35.4803 21.248 35.4803C13.3968 35.4803 7.81168 27.9112 7.92842 19.5712L34.2098 19.627Z" fill="white" stroke="white"/>
<path d="M20.8994 9.7396C17.4392 9.71936 15.1402 11.5347 13.7144 13.3562L14.2594 12.3922L17.5263 10.0207L21.5005 9.38195L26.291 11.0813L29.1382 14.8665L29.3224 15.5972C28.9981 14.9606 28.521 14.1479 27.8688 13.332C26.4628 11.5729 24.2075 9.76036 20.8996 9.7396L20.8994 9.7396ZM29.4042 17.0196C29.5117 16.9829 29.5947 16.9545 29.6589 16.9326L29.659 16.9326L29.4042 17.0196Z" fill="white" stroke="white"/>
<mask id="path-8-inside-1_1380_459" fill="white">
<path d="M20.8354 31.3627C15.3805 31.3627 11.1863 26.7414 10.8149 20.277C10.6377 17.1949 11.5747 14.2452 13.4555 11.9774C15.3669 9.66287 18.0518 8.34974 20.8354 8.38481C23.7622 8.41598 26.2767 9.62391 28.1132 11.8761C29.9871 14.1751 30.9616 17.339 30.7878 20.5498C30.4573 26.6829 26.3755 31.2263 21.0807 31.3627C20.9956 31.3588 20.9138 31.3627 20.8354 31.3627ZM20.7434 9.35505C18.2323 9.35505 15.803 10.5513 14.0722 12.6437C12.3584 14.7167 11.5032 17.4053 11.6633 20.2108C12.0074 26.2309 15.9495 30.5054 21.0569 30.3807C25.8985 30.2599 29.6294 26.0984 29.9326 20.4835C30.0893 17.5806 29.1728 14.6076 27.4862 12.5307C25.8133 10.4772 23.5101 9.37842 20.8252 9.35115C20.798 9.35505 20.7707 9.35505 20.7434 9.35505Z"/>
</mask>
<path d="M20.8354 31.3627C15.3805 31.3627 11.1863 26.7414 10.8149 20.277C10.6377 17.1949 11.5747 14.2452 13.4555 11.9774C15.3669 9.66287 18.0518 8.34974 20.8354 8.38481C23.7622 8.41598 26.2767 9.62391 28.1132 11.8761C29.9871 14.1751 30.9616 17.339 30.7878 20.5498C30.4573 26.6829 26.3755 31.2263 21.0807 31.3627C20.9956 31.3588 20.9138 31.3627 20.8354 31.3627ZM20.7434 9.35505C18.2323 9.35505 15.803 10.5513 14.0722 12.6437C12.3584 14.7167 11.5032 17.4053 11.6633 20.2108C12.0074 26.2309 15.9495 30.5054 21.0569 30.3807C25.8985 30.2599 29.6294 26.0984 29.9326 20.4835C30.0893 17.5806 29.1728 14.6076 27.4862 12.5307C25.8133 10.4772 23.5101 9.37842 20.8252 9.35115C20.798 9.35505 20.7707 9.35505 20.7434 9.35505Z" fill="white"/>
<path d="M10.8149 20.277L11.8133 20.2197L11.8133 20.2196L10.8149 20.277ZM13.4555 11.9774L14.2252 12.6158L14.2265 12.6142L13.4555 11.9774ZM20.8354 8.38481L20.8228 9.38473L20.8248 9.38475L20.8354 8.38481ZM28.1132 11.8761L28.8883 11.2443L28.8882 11.2441L28.1132 11.8761ZM30.7878 20.5498L29.7893 20.4957L29.7893 20.496L30.7878 20.5498ZM21.0807 31.3627L21.0351 32.3616L21.0708 32.3632L21.1065 32.3623L21.0807 31.3627ZM14.0722 12.6437L13.3016 12.0063L13.3015 12.0065L14.0722 12.6437ZM11.6633 20.2108L10.6649 20.2678L10.6649 20.2678L11.6633 20.2108ZM21.0569 30.3807L21.0813 31.3804L21.0818 31.3804L21.0569 30.3807ZM29.9326 20.4835L30.9311 20.5375L30.9311 20.5374L29.9326 20.4835ZM27.4862 12.5307L28.2625 11.9003L28.2615 11.8991L27.4862 12.5307ZM20.8252 9.35115L20.8354 8.3512L20.7591 8.35043L20.6837 8.36121L20.8252 9.35115ZM20.8354 30.3627C16.0484 30.3627 12.1628 26.3045 11.8133 20.2197L9.81656 20.3344C10.2098 27.1783 14.7127 32.3627 20.8354 32.3627V30.3627ZM11.8133 20.2196C11.6498 17.3761 12.5145 14.6785 14.2252 12.6158L12.6858 11.339C10.6349 13.8119 9.62568 17.0136 9.81657 20.3344L11.8133 20.2196ZM14.2265 12.6142C15.964 10.5103 18.3702 9.35383 20.8228 9.38473L20.848 7.38489C17.7333 7.34565 14.7698 8.81544 12.6844 11.3406L14.2265 12.6142ZM20.8248 9.38475C23.4566 9.41278 25.6904 10.4873 27.3382 12.5081L28.8882 11.2441C26.863 8.76051 24.0678 7.41918 20.8461 7.38487L20.8248 9.38475ZM27.3381 12.5079C29.0407 14.5968 29.9508 17.5103 29.7893 20.4957L31.7863 20.6038C31.9723 17.1678 30.9335 13.7533 28.8883 11.2443L27.3381 12.5079ZM29.7893 20.496C29.48 26.2356 25.7101 30.2431 21.055 30.363L21.1065 32.3623C27.0409 32.2095 31.4347 27.1302 31.7864 20.6036L29.7893 20.496ZM21.1264 30.3637C21.015 30.3586 20.8474 30.3627 20.8354 30.3627V32.3627C20.9802 32.3627 20.9762 32.3589 21.0351 32.3616L21.1264 30.3637ZM20.7434 8.35505C17.9082 8.35505 15.2052 9.7051 13.3016 12.0063L14.8427 13.2811C16.4009 11.3975 18.5565 10.355 20.7434 10.355V8.35505ZM13.3015 12.0065C11.419 14.2835 10.4911 17.2231 10.6649 20.2678L12.6617 20.1538C12.5152 17.5874 13.2977 15.1499 14.8429 13.2809L13.3015 12.0065ZM10.6649 20.2678C11.031 26.6712 15.2913 31.5218 21.0813 31.3804L21.0325 29.381C16.6077 29.489 12.9839 25.7906 12.6617 20.1537L10.6649 20.2678ZM21.0818 31.3804C26.5653 31.2436 30.6068 26.5439 30.9311 20.5375L28.9341 20.4296C28.652 25.653 25.2317 29.2763 21.032 29.381L21.0818 31.3804ZM30.9311 20.5374C31.1 17.4093 30.1192 14.1866 28.2625 11.9003L26.71 13.1611C28.2264 15.0285 29.0786 17.752 28.9341 20.4296L30.9311 20.5374ZM28.2615 11.8991C26.3978 9.61146 23.8124 8.38144 20.8354 8.3512L20.8151 10.3511C23.2078 10.3754 25.2288 11.343 26.711 13.1623L28.2615 11.8991ZM20.6837 8.36121C20.7156 8.35665 20.7393 8.35553 20.7486 8.3552C20.7535 8.35502 20.7561 8.35501 20.755 8.35502C20.7533 8.35504 20.751 8.35505 20.7434 8.35505V10.355C20.7592 10.355 20.8575 10.3567 20.9667 10.3411L20.6837 8.36121Z" fill="white" mask="url(#path-8-inside-1_1380_459)"/>
</svg>
