<svg width="36" height="40" viewBox="0 0 36 40" fill="none" xmlns="http://www.w3.org/2000/svg">
<g filter="url(#filter0_d_1380_215)">
<path d="M17.5938 0.644371C9.43021 0.710612 4.54772 7.11651 4.42847 15.5642C4.30922 24.082 10.0265 31.9803 18.248 31.9803C26.8273 31.9803 31.6518 24.0119 31.7098 15.6304C31.7643 8.19974 26.0504 0.574233 17.5938 0.644371Z" fill="white"/>
<path d="M17.598 1.14435L17.5979 1.14435C13.6573 1.17633 10.5353 2.733 8.37617 5.28424C6.20973 7.84416 4.98677 11.4382 4.92842 15.5712L17.598 1.14435ZM17.598 1.14435C25.7148 1.07703 31.2627 8.41063 31.2098 15.6268L31.2098 15.627M17.598 1.14435L31.2098 15.627M31.2098 15.627C31.1814 19.7297 29.9854 23.708 27.7748 26.6479C25.5726 29.5764 22.3633 31.4803 18.248 31.4803C10.3968 31.4803 4.81168 23.9112 4.92842 15.5712L31.2098 15.627Z" stroke="white"/>
</g>
<defs>
<filter id="filter0_d_1380_215" x="0.426636" y="0.64389" width="35.2835" height="39.3364" filterUnits="userSpaceOnUse" color-interpolation-filters="sRGB">
<feFlood flood-opacity="0" result="BackgroundImageFix"/>
<feColorMatrix in="SourceAlpha" type="matrix" values="0 0 0 0 0 0 0 0 0 0 0 0 0 0 0 0 0 0 127 0" result="hardAlpha"/>
<feOffset dy="4"/>
<feGaussianBlur stdDeviation="2"/>
<feComposite in2="hardAlpha" operator="out"/>
<feColorMatrix type="matrix" values="0 0 0 0 0 0 0 0 0 0 0 0 0 0 0 0 0 0 0.25 0"/>
<feBlend mode="normal" in2="BackgroundImageFix" result="effect1_dropShadow_1380_215"/>
<feBlend mode="normal" in="SourceGraphic" in2="effect1_dropShadow_1380_215" result="shape"/>
</filter>
</defs>
</svg>
